<svg xmlns="http://www.w3.org/2000/svg" width="24" height="24" viewBox="0 0 24 24">
  <path fill-rule="evenodd" clip-rule="evenodd" d="M21.0357 12.2591C20.9519 12.0944 20.9519 11.9056 21.0357 11.741L21.8131 10.215C22.2459 9.36538 21.903 8.3527 21.0324 7.90946L19.4687 7.11337C19.3 7.02752 19.1844 6.8747 19.1514 6.69428L18.8455 5.02129C18.6753 4.08981 17.7773 3.46388 16.8016 3.59634L15.0489 3.83423C14.8598 3.85986 14.6727 3.8015 14.5355 3.67412L13.2633 2.49319C12.5549 1.83562 11.4451 1.83558 10.7368 2.49319L9.46453 3.67423C9.32726 3.80165 9.1402 3.8599 8.95106 3.83435L7.1984 3.59646C6.22239 3.46392 5.32474 4.08993 5.15446 5.02141L4.84865 6.69432C4.81563 6.87478 4.69998 7.02755 4.53132 7.11345L2.96766 7.90954C2.09705 8.35274 1.75411 9.3655 2.18694 10.2151L2.96429 11.7411C3.04815 11.9057 3.04815 12.0945 2.96429 12.2591L2.1869 13.7851C1.75407 14.6347 2.09701 15.6474 2.96762 16.0906L4.53128 16.8867C4.69998 16.9726 4.81563 17.1254 4.84865 17.3058L5.15446 18.9788C5.30948 19.8267 6.06724 20.4214 6.93814 20.4213C7.02392 20.4213 7.11095 20.4156 7.19844 20.4037L8.9511 20.1658C9.14012 20.1401 9.3273 20.1985 9.46457 20.3259L10.7368 21.5068C11.091 21.8357 11.5454 22 12 22C12.4544 22 12.9091 21.8356 13.2632 21.5068L14.5355 20.3259C14.6727 20.1985 14.8598 20.1403 15.0489 20.1658L16.8016 20.4037C17.7777 20.5362 18.6753 19.9102 18.8455 18.9787L19.1514 17.3058C19.1844 17.1254 19.3001 16.9726 19.4687 16.8867L21.0324 16.0906C21.903 15.6474 22.2459 14.6347 21.8131 13.785L21.0357 12.2591ZM19.6804 12.2202C19.6091 12.0802 19.6091 11.9197 19.6804 11.7798L20.3411 10.4828C20.709 9.76057 20.4175 8.89979 19.6775 8.52304L18.3484 7.84637C18.205 7.77339 18.1067 7.6435 18.0787 7.49014L17.8187 6.0681C17.674 5.27634 16.9107 4.7443 16.0814 4.85689L14.5916 5.0591C14.4308 5.08088 14.2718 5.03127 14.1551 4.923L13.0738 3.91921C12.4716 3.36028 11.5284 3.36025 10.9263 3.91921L9.84485 4.9231C9.72817 5.03141 9.56917 5.08091 9.4084 5.0592L7.91864 4.85699C7.08903 4.74434 6.32603 5.27644 6.18129 6.06819L5.92135 7.49017C5.89329 7.64357 5.79498 7.77342 5.65162 7.84643L4.32252 8.52311C3.58249 8.89982 3.291 9.76067 3.6589 10.4829L4.31964 11.7799C4.39093 11.9198 4.39093 12.0803 4.31964 12.2203L3.65886 13.5173C3.29096 14.2395 3.58246 15.1003 4.32248 15.477L5.65158 16.1537C5.79498 16.2267 5.89329 16.3566 5.92135 16.5099L6.18129 17.932C6.31306 18.6527 6.95716 19.1582 7.69742 19.1581C7.77033 19.1581 7.84431 19.1532 7.91867 19.1431L9.40844 18.9409C9.5691 18.9191 9.72821 18.9688 9.84489 19.077L10.9263 20.0808C11.2274 20.3603 11.6136 20.5 12 20.5C12.3863 20.5 12.7728 20.3603 13.0737 20.0808L14.1551 19.077C14.2718 18.9688 14.4309 18.9193 14.5916 18.9409L16.0814 19.1431C16.9111 19.2558 17.674 18.7237 17.8187 17.9319L18.0787 16.51C18.1067 16.3566 18.2051 16.2267 18.3484 16.1537L19.6775 15.477C20.4175 15.1003 20.709 14.2395 20.3411 13.5173L19.6804 12.2202ZM12.153 14.7712C12.0421 14.8631 11.9116 14.9091 11.7616 14.9091C11.6656 14.9091 11.5741 14.8861 11.4872 14.8401C11.4002 14.7942 11.3267 14.7252 11.2667 14.6333L10.0699 12.7763C9.94989 12.5802 9.82241 12.4423 9.68743 12.3626C9.55245 12.2829 9.37697 12.2431 9.16101 12.2431H8.27914V14.3023C8.27914 14.4862 8.22815 14.6318 8.12617 14.739C8.02418 14.8463 7.8862 14.8999 7.71223 14.8999C7.53826 14.8999 7.39878 14.8463 7.2938 14.739C7.18881 14.6318 7.13632 14.4862 7.13632 14.3023V8.92441C7.13632 8.74668 7.18581 8.60878 7.2848 8.51072C7.38378 8.41266 7.52026 8.36363 7.69423 8.36363H9.94389C10.6638 8.36363 11.2112 8.52758 11.5861 8.85546C11.9611 9.18335 12.1485 9.65679 12.1485 10.2758C12.1485 10.7783 12.0091 11.1905 11.7301 11.5123C11.4512 11.834 10.8617 12.0868 10.8617 12.0868C10.9887 12.1929 11.2461 12.594 11.3777 12.7989L11.3927 12.8223L12.2115 14.1001C12.2835 14.2104 12.3195 14.3177 12.3195 14.4219C12.3195 14.5628 12.264 14.6793 12.153 14.7712ZM8.27007 11.333H9.78184C10.2198 11.333 10.5407 11.2487 10.7447 11.0802C10.9487 10.9116 11.0506 10.6527 11.0506 10.3034C11.0506 9.94789 10.9487 9.68895 10.7447 9.52654C10.5407 9.36413 10.2198 9.28293 9.78184 9.28293H8.27007V11.333ZM14.2632 16.4076C14.1612 16.4995 14.0263 16.5454 13.8583 16.5454C13.6903 16.5454 13.5538 16.4964 13.4489 16.3984C13.3439 16.3003 13.2914 16.1716 13.2914 16.0123V10.7998C13.2914 10.6343 13.3409 10.5025 13.4399 10.4045C13.5388 10.3064 13.6723 10.2574 13.8403 10.2574C14.0083 10.2574 14.1432 10.3064 14.2452 10.4045C14.3472 10.5025 14.3982 10.6343 14.3982 10.7998V11.0296C14.5302 10.7783 14.7207 10.5838 14.9696 10.4459C15.2186 10.308 15.502 10.239 15.82 10.239C16.1979 10.239 16.5354 10.3371 16.8323 10.5332C17.1293 10.7293 17.3602 11.0066 17.5252 11.3652C17.6902 11.7237 17.7727 12.1358 17.7727 12.6016C17.7727 13.0674 17.6902 13.475 17.5252 13.8243C17.3602 14.1736 17.1308 14.4433 16.8368 14.6333C16.5429 14.8233 16.2039 14.9183 15.82 14.9183C15.508 14.9183 15.2291 14.8509 14.9831 14.716L14.9486 14.6972C14.7194 14.5719 14.5419 14.4749 14.4162 14.2472V16.0306C14.4162 16.19 14.3652 16.3156 14.2632 16.4076ZM14.6906 13.6496C14.8856 13.9009 15.163 14.0265 15.523 14.0265C15.8769 14.0265 16.1529 13.9024 16.3509 13.6542C16.5488 13.406 16.6478 13.0551 16.6478 12.6016C16.6478 12.1358 16.5488 11.7742 16.3509 11.5168C16.1529 11.2594 15.8769 11.1307 15.523 11.1307C15.163 11.1307 14.8856 11.2564 14.6906 11.5076C14.4957 11.7589 14.3982 12.1175 14.3982 12.5832C14.3982 13.0429 14.4957 13.3984 14.6906 13.6496Z" />
</svg>