<svg xmlns="http://www.w3.org/2000/svg" width="24" height="24" viewBox="0 0 24 24" >
  <path fill-rule="evenodd" clip-rule="evenodd" d="M11.9055 6.25C11.5725 7.54392 10.3979 8.5 9 8.5C7.60212 8.5 6.42755 7.54392 6.09451 6.25H3.25C2.83579 6.25 2.5 5.91421 2.5 5.5C2.5 5.08579 2.83579 4.75 3.25 4.75H6.09451C6.42755 3.45608 7.60212 2.5 9 2.5C10.3979 2.5 11.5725 3.45608 11.9055 4.75H20.75C21.1642 4.75 21.5 5.08579 21.5 5.5C21.5 5.91421 21.1642 6.25 20.75 6.25H11.9055ZM9 7C9.82843 7 10.5 6.32843 10.5 5.5C10.5 4.67157 9.82843 4 9 4C8.17157 4 7.5 4.67157 7.5 5.5C7.5 6.32843 8.17157 7 9 7ZM12.0945 12.75C12.4275 14.0439 13.6021 15 15 15C16.3979 15 17.5725 14.0439 17.9055 12.75H20.75C21.1642 12.75 21.5 12.4142 21.5 12C21.5 11.5858 21.1642 11.25 20.75 11.25H17.9055C17.5725 9.95608 16.3979 9 15 9C13.6021 9 12.4275 9.95608 12.0945 11.25H3.25C2.83579 11.25 2.5 11.5858 2.5 12C2.5 12.4142 2.83579 12.75 3.25 12.75H12.0945ZM15 13.5C14.1716 13.5 13.5 12.8284 13.5 12C13.5 11.1716 14.1716 10.5 15 10.5C15.8284 10.5 16.5 11.1716 16.5 12C16.5 12.8284 15.8284 13.5 15 13.5ZM10 15.5C8.60212 15.5 7.42754 16.4561 7.09451 17.75H3.25C2.83579 17.75 2.5 18.0858 2.5 18.5C2.5 18.9142 2.83579 19.25 3.25 19.25H7.09451C7.42754 20.5439 8.60212 21.5 10 21.5C11.3979 21.5 12.5725 20.5439 12.9055 19.25H20.75C21.1642 19.25 21.5 18.9142 21.5 18.5C21.5 18.0858 21.1642 17.75 20.75 17.75H12.9055C12.5725 16.4561 11.3979 15.5 10 15.5ZM11.5 18.5C11.5 19.3284 10.8284 20 10 20C9.17157 20 8.5 19.3284 8.5 18.5C8.5 17.6716 9.17157 17 10 17C10.8284 17 11.5 17.6716 11.5 18.5Z" />
</svg>