<svg xmlns="http://www.w3.org/2000/svg" width="24" height="24" viewBox="0 0 24 24" >
  <path fill-rule="evenodd" clip-rule="evenodd" d="M17.4697 9.46967C17.7626 9.17678 18.2374 9.17678 18.5303 9.46967L20 10.9393L21.4697 9.46967C21.7626 9.17678 22.2374 9.17678 22.5303 9.46967C22.8232 9.76256 22.8232 10.2374 22.5303 10.5303L21.0607 12L22.5303 13.4697C22.8232 13.7626 22.8232 14.2374 22.5303 14.5303C22.2374 14.8232 21.7626 14.8232 21.4697 14.5303L20 13.0607L18.5303 14.5303C18.2374 14.8232 17.7626 14.8232 17.4697 14.5303C17.1768 14.2374 17.1768 13.7626 17.4697 13.4697L18.9393 12L17.4697 10.5303C17.1768 10.2374 17.1768 9.76256 17.4697 9.46967Z" />
  <path fill-rule="evenodd" clip-rule="evenodd" d="M14.3498 18.4288C14.3498 18.5912 14.3058 18.7507 14.2225 18.8901C14.1392 19.0296 14.0197 19.1439 13.8766 19.221C13.7336 19.298 13.5724 19.3349 13.4101 19.3278C13.2478 19.3206 13.0905 19.2696 12.9548 19.1803L7.5548 15.6199C7.40787 15.5231 7.23577 15.4714 7.0598 15.4714H4.4498C3.97241 15.4714 3.51458 15.2817 3.17701 14.9442C2.83945 14.6066 2.6498 14.1488 2.6498 13.6714V10.3288C2.6498 9.8514 2.83945 9.39356 3.17701 9.05599C3.51458 8.71843 3.97241 8.52879 4.4498 8.52879H7.0598C7.23577 8.52874 7.40787 8.47711 7.5548 8.38029L12.9548 4.81989C13.0905 4.73053 13.2478 4.67957 13.4101 4.67241C13.5724 4.66524 13.7336 4.70214 13.8766 4.77919C14.0197 4.85624 14.1392 4.97056 14.2225 5.11004C14.3058 5.24951 14.3498 5.40893 14.3498 5.57139V18.4288ZM6.92458 7.17879L12.2117 3.69282L12.2123 3.69241C12.5515 3.46903 12.9448 3.34163 13.3506 3.32372C13.7563 3.30581 14.1594 3.39806 14.5169 3.59068C14.8745 3.7833 15.1732 4.06911 15.3815 4.41779C15.5897 4.76647 15.6997 5.16502 15.6998 5.57116V5.57139V18.4288V18.429C15.6997 18.8351 15.5897 19.2337 15.3815 19.5824C15.1732 19.9311 14.8745 20.2169 14.5169 20.4095C14.1594 20.6021 13.7563 20.6944 13.3506 20.6764C12.9448 20.6585 12.5515 20.5311 12.2123 20.3078L12.2117 20.3074L6.92458 16.8214H4.4498C3.61437 16.8214 2.81316 16.4895 2.22242 15.8988C1.63168 15.308 1.2998 14.5068 1.2998 13.6714V10.3288C1.2998 9.49335 1.63168 8.69214 2.22242 8.1014C2.81316 7.51066 3.61437 7.17879 4.4498 7.17879H6.92458Z"/>
</svg>