<svg xmlns="http://www.w3.org/2000/svg" width="24" height="24" viewBox="0 0 24 24" >
  <path fill-rule="evenodd" clip-rule="evenodd" d="M7.06651 3H7.45954L7.83523 3.00206C8.68513 3.00911 9.34973 3.03146 9.86022 3.05814C10.7291 3.10418 11.4219 3.79697 11.4679 4.66583L11.479 4.89414C11.5061 5.48895 11.5263 6.26579 11.5263 7.26302L11.524 7.83523C11.5169 8.68513 11.4946 9.34973 11.4679 9.86022C11.4219 10.7291 10.7291 11.4219 9.86022 11.4679L9.63191 11.479C9.0371 11.5061 8.26026 11.5263 7.26302 11.5263L6.69082 11.524C5.84092 11.5169 5.17632 11.4946 4.66583 11.4679C3.79697 11.4219 3.10418 10.7291 3.05814 9.86022L3.047 9.63191C3.02178 9.07675 3.00246 8.36303 3 7.45954V7.06651C3.00282 6.03395 3.02765 5.24925 3.05814 4.66583C3.10418 3.79697 3.79697 3.10418 4.66583 3.05814L4.89414 3.047C5.4493 3.02178 6.16302 3.00246 7.06651 3ZM7.13206 4.42105H7.39408L7.64454 4.42242C8.21114 4.42713 8.65421 4.44202 8.99453 4.45981C9.57377 4.49051 10.0356 4.95237 10.0663 5.5316L10.0738 5.68381C10.0918 6.08035 10.1053 6.59825 10.1053 7.26307L10.1037 7.64454C10.099 8.21114 10.0841 8.65421 10.0663 8.99453C10.0356 9.57377 9.57377 10.0356 8.99453 10.0663L8.84233 10.0738C8.44579 10.0918 7.92789 10.1053 7.26307 10.1053L6.8816 10.1037C6.315 10.099 5.87193 10.0841 5.5316 10.0663C4.95237 10.0356 4.49051 9.57377 4.45981 8.99453L4.45239 8.84233C4.43557 8.47222 4.4227 7.99641 4.42105 7.39408V7.13206C4.42293 6.44369 4.43948 5.92055 4.45981 5.5316C4.49051 4.95237 4.95237 4.49051 5.5316 4.45981L5.68381 4.45239C6.05392 4.43557 6.52973 4.4227 7.13206 4.42105ZM7.06651 12.4737H7.45954L7.83523 12.4757C8.68513 12.4828 9.34973 12.5051 9.86022 12.5318C10.7291 12.5779 11.4219 13.2707 11.4679 14.1395L11.479 14.3678C11.5061 14.9626 11.5263 15.7395 11.5263 16.7367L11.524 17.3089C11.5169 18.1588 11.4946 18.8234 11.4679 19.3339C11.4219 20.2028 10.7291 20.8955 9.86022 20.9416L9.63191 20.9527C9.0371 20.9798 8.26026 21 7.26302 21L6.69082 20.9977C5.84092 20.9906 5.17632 20.9683 4.66583 20.9416C3.79697 20.8955 3.10418 20.2028 3.05814 19.3339L3.047 19.1056C3.02178 18.5504 3.00246 17.8367 3 16.9332V16.5402C3.00282 15.5076 3.02765 14.7229 3.05814 14.1395C3.10418 13.2707 3.79697 12.5779 4.66583 12.5318L4.89414 12.5207C5.4493 12.4955 6.16302 12.4761 7.06651 12.4737ZM5.68381 13.9261C6.05392 13.9093 6.52973 13.8964 7.13206 13.8947H7.39408L7.64454 13.8961C8.21114 13.9008 8.65421 13.9157 8.99453 13.9335C9.57377 13.9642 10.0356 14.4261 10.0663 15.0053L10.0738 15.1575C10.0918 15.554 10.1053 16.0719 10.1053 16.7368L10.1037 17.1182C10.099 17.6848 10.0841 18.1279 10.0663 18.4682C10.0356 19.0475 9.57377 19.5093 8.99453 19.54L8.84233 19.5474C8.44579 19.5654 7.92789 19.5789 7.26307 19.5789L6.8816 19.5774C6.315 19.5727 5.87193 19.5578 5.5316 19.54C4.95237 19.5093 4.49051 19.0475 4.45981 18.4682L4.45239 18.316C4.43557 17.9459 4.4227 17.4701 4.42105 16.8678V16.6057C4.42293 15.9174 4.43948 15.3942 4.45981 15.0053C4.49051 14.4261 4.95237 13.9642 5.5316 13.9335L5.68381 13.9261ZM16.9332 3H16.5402C15.6367 3.00246 14.923 3.02178 14.3678 3.047L14.1395 3.05814C13.2707 3.10418 12.5779 3.79697 12.5318 4.66583C12.5013 5.24925 12.4765 6.03395 12.4737 7.06651V7.45954C12.4761 8.36303 12.4955 9.07675 12.5207 9.63191L12.5318 9.86022C12.5779 10.7291 13.2707 11.4219 14.1395 11.4679C14.65 11.4946 15.3146 11.5169 16.1645 11.524L16.7367 11.5263C17.7339 11.5263 18.5108 11.5061 19.1056 11.479L19.3339 11.4679C20.2028 11.4219 20.8955 10.7291 20.9416 9.86022C20.9683 9.34973 20.9906 8.68513 20.9977 7.83523L21 7.26302C21 6.26579 20.9798 5.48895 20.9527 4.89414L20.9416 4.66583C20.8955 3.79697 20.2028 3.10418 19.3339 3.05814C18.8234 3.03146 18.1588 3.00911 17.3089 3.00206L16.9332 3ZM16.8678 4.42105H16.6057C16.0034 4.4227 15.5276 4.43557 15.1575 4.45239L15.0053 4.45981C14.4261 4.49051 13.9642 4.95237 13.9335 5.5316C13.9132 5.92055 13.8966 6.44369 13.8947 7.13206V7.39408C13.8964 7.99641 13.9093 8.47222 13.9261 8.84233L13.9335 8.99453C13.9642 9.57377 14.4261 10.0356 15.0053 10.0663C15.3456 10.0841 15.7887 10.099 16.3553 10.1037L16.7368 10.1053C17.4016 10.1053 17.9195 10.0918 18.316 10.0738L18.4682 10.0663C19.0475 10.0356 19.5093 9.57377 19.54 8.99453C19.5578 8.65421 19.5727 8.21114 19.5774 7.64454L19.5789 7.26307C19.5789 6.59825 19.5654 6.08035 19.5474 5.68381L19.54 5.5316C19.5093 4.95237 19.0475 4.49051 18.4682 4.45981C18.1279 4.44202 17.6848 4.42713 17.1182 4.42242L16.8678 4.42105ZM14.3678 12.5207C14.923 12.4955 15.6367 12.4761 16.5402 12.4737H16.9332L17.3089 12.4757C18.1588 12.4828 18.8234 12.5051 19.3339 12.5318C20.2028 12.5779 20.8955 13.2707 20.9416 14.1395L20.9527 14.3678C20.9798 14.9626 21 15.7395 21 16.7367L20.9977 17.3089C20.9906 18.1588 20.9683 18.8234 20.9416 19.3339C20.8955 20.2028 20.2028 20.8955 19.3339 20.9416L19.1056 20.9527C18.5108 20.9798 17.7339 21 16.7367 21L16.1645 20.9977C15.3146 20.9906 14.65 20.9683 14.1395 20.9416C13.2707 20.8955 12.5779 20.2028 12.5318 19.3339L12.5207 19.1056C12.4955 18.5504 12.4761 17.8367 12.4737 16.9332V16.5402C12.4765 15.5076 12.5013 14.7229 12.5318 14.1395C12.5779 13.2707 13.2707 12.5779 14.1395 12.5318L14.3678 12.5207ZM15.1575 13.9261C15.5276 13.9093 16.0034 13.8964 16.6057 13.8947H16.8678L17.1182 13.8961C17.6848 13.9008 18.1279 13.9157 18.4682 13.9335C19.0475 13.9642 19.5093 14.4261 19.54 15.0053L19.5474 15.1575C19.5654 15.554 19.5789 16.0719 19.5789 16.7368L19.5774 17.1182C19.5727 17.6848 19.5578 18.1279 19.54 18.4682C19.5093 19.0475 19.0475 19.5093 18.4682 19.54L18.316 19.5474C17.9195 19.5654 17.4016 19.5789 16.7368 19.5789L16.3553 19.5774C15.7887 19.5727 15.3456 19.5578 15.0053 19.54C14.4261 19.5093 13.9642 19.0475 13.9335 18.4682L13.9261 18.316C13.9093 17.9459 13.8964 17.4701 13.8947 16.8678V16.6057C13.8966 15.9174 13.9132 15.3942 13.9335 15.0053C13.9642 14.4261 14.4261 13.9642 15.0053 13.9335L15.1575 13.9261Z" />
</svg>