<svg xmlns="http://www.w3.org/2000/svg" width="24" height="24" viewBox="0 0 24 24" >
  <path d="M16.8003 11.8C15.3005 11.8 13.9585 12.4632 13.0423 13.509L9.86856 11.5557C10.0311 11.1097 10.1338 10.6352 10.1338 10.1332C10.1338 9.80468 10.0868 9.48969 10.015 9.1827L14.2338 7.23597C14.8448 7.98148 15.761 8.46649 16.8005 8.46649C18.6405 8.46649 20.1338 6.97401 20.1338 5.13324C20.1338 3.29247 18.6403 1.79999 16.8003 1.79999C14.9588 1.79999 13.467 3.29247 13.467 5.13324C13.467 5.33651 13.4923 5.53373 13.5263 5.72572L9.3125 7.67074C8.55327 6.64222 7.34302 5.96674 5.96699 5.96674C3.66553 5.96674 1.80029 7.83173 1.80029 10.1332C1.80029 12.4348 3.66553 14.3 5.96704 14.3C7.16479 14.3 8.23755 13.7872 8.99756 12.9767L12.1666 14.9267C11.932 15.506 11.8003 16.1368 11.8003 16.8C11.8003 19.562 14.0383 21.8 16.8003 21.8C19.5608 21.8 21.8003 19.562 21.8003 16.8C21.8003 14.038 19.5608 11.8 16.8003 11.8ZM16.8003 3.46674C17.719 3.46674 18.467 4.21376 18.467 5.13348C18.467 6.05297 17.719 6.79999 16.8003 6.79999C15.8815 6.79999 15.1335 6.05297 15.1335 5.13324C15.1335 4.21376 15.8815 3.46674 16.8003 3.46674ZM5.96704 12.6332C4.58828 12.6332 3.46704 11.512 3.46704 10.1332C3.46704 8.75472 4.58828 7.63324 5.96704 7.63324C7.34556 7.63324 8.46704 8.75472 8.46704 10.1332C8.46704 11.512 7.34556 12.6332 5.96704 12.6332ZM16.8003 20.1332C14.9618 20.1332 13.467 18.6385 13.467 16.8C13.467 14.9615 14.9618 13.4667 16.8003 13.4667C18.6388 13.4667 20.1335 14.9615 20.1335 16.8C20.1335 18.6385 18.6388 20.1332 16.8003 20.1332Z" />
</svg>