<svg xmlns="http://www.w3.org/2000/svg" width="24" height="24" viewBox="0 0 24 24" >
  <path fill-rule="evenodd" clip-rule="evenodd" d="M12 4L13.0722 4.00524C15.695 4.0312 17.8844 4.15195 19.6494 4.32916C20.7752 4.44205 21.6457 5.42398 21.7605 6.65243C21.9091 8.24179 22 10.1939 22 12.5C22 14.8067 21.9091 16.7578 21.7605 18.3475C21.6457 19.576 20.7752 20.5579 19.6499 20.6708L18.9252 20.7385C17.1795 20.8892 15.0497 20.9864 12.5429 20.9987L12 21C8.87154 21 6.30967 20.8699 4.31338 20.6673C3.18695 20.5532 2.31898 19.5646 2.20539 18.332L2.16208 17.8176C2.06629 16.566 2.00812 14.9549 2.00079 12.9383L2 12.5C2 9.98073 2.07636 8.06404 2.20538 6.66809C2.31903 5.43591 3.1872 4.44674 4.31323 4.33273L5.04133 4.26431C6.92031 4.10127 9.2396 4 12 4ZM12 5.30769L10.9342 5.31291C8.32855 5.33877 6.1638 5.45898 4.43896 5.63406C3.94941 5.68363 3.5349 6.15591 3.47631 6.79122L3.43433 7.29029C3.34143 8.5062 3.28454 10.0841 3.27737 12.0685L3.2766 12.5C3.2766 14.9805 3.35135 16.8568 3.47632 18.209C3.5349 18.8446 3.94907 19.3163 4.43911 19.366L5.15247 19.433C6.87173 19.5821 8.9744 19.6788 11.4612 19.691L12 19.6923C15.0674 19.6923 17.5799 19.5659 19.525 19.3694C20.0166 19.3201 20.4309 18.8528 20.4897 18.2229C20.6345 16.6746 20.7234 14.7651 20.7234 12.5C20.7234 10.2355 20.6345 8.325 20.4897 6.77705C20.4309 6.14721 20.0166 5.67992 19.525 5.63063C17.5658 5.43392 15.0619 5.30769 12 5.30769ZM10.6493 10.5837L10.5572 10.4905L10.4542 10.4028C9.81982 9.91065 8.91127 10.0301 8.41311 10.7156L4.86677 15.5941L4.79814 15.6963C4.19896 16.6652 4.7525 18.0251 5.88923 18.1408C7.35982 18.2931 9.38714 18.3846 12.0485 18.3846L12.4104 18.384L13.2906 18.3775C15.2856 18.3539 16.8719 18.2734 18.097 18.1523C19.3132 18.0314 19.8648 16.5064 19.0861 15.5411L17.2517 13.2705L17.1612 13.1681C16.6601 12.6491 15.8761 12.5684 15.288 13.0012L13.9424 13.9884L13.8975 14.0126C13.836 14.0349 13.7696 14.0171 13.7164 13.9584L10.6493 10.5837ZM9.47252 11.4568L9.43706 11.4965L5.89075 16.375C5.7582 16.5574 5.85919 16.8236 6.01655 16.8396C7.28413 16.9709 8.99348 17.0563 11.1976 17.0736L12.4074 17.0763L13.273 17.0699C15.2341 17.0469 16.7859 16.9681 17.9741 16.8507C18.127 16.8355 18.2247 16.606 18.1382 16.4305L18.1023 16.3744L16.2685 14.1046C16.2142 14.0374 16.1444 14.0156 16.0795 14.0384L16.0321 14.0638L14.6847 15.0523C14.1241 15.4618 13.3818 15.4103 12.8786 14.9468L12.7813 14.8487L9.71446 11.4743C9.6574 11.4114 9.58469 11.3949 9.51957 11.4253L9.47252 11.4568ZM16.6809 6.39744C15.2711 6.39744 14.1277 7.56876 14.1277 9.01282C14.1277 10.4574 15.271 11.6282 16.6809 11.6282C18.0912 11.6282 19.234 10.4575 19.234 9.01282C19.234 7.56863 18.0911 6.39744 16.6809 6.39744ZM16.6809 7.70513C17.3862 7.70513 17.9574 8.29097 17.9574 9.01282C17.9574 9.73532 17.3862 10.3205 16.6809 10.3205C15.9762 10.3205 15.4043 9.73532 15.4043 9.01282C15.4043 8.29097 15.9762 7.70513 16.6809 7.70513Z" />
</svg>