<svg xmlns="http://www.w3.org/2000/svg" width="24" height="24" viewBox="0 0 24 24">
  <path fill-rule="evenodd" clip-rule="evenodd" d="M13.0901 3.29318C15.0142 4.24351 16.5129 4.98377 18.5626 3.98675C18.8725 3.836 19.2382 3.85545 19.5304 4.03824C19.8225 4.22102 20 4.54137 20 4.886V14.426C20 14.8086 19.7817 15.1577 19.4377 15.3251C16.4569 16.7761 14.0556 15.5658 12.1887 14.6248C11.9741 14.5166 11.7666 14.412 11.566 14.3154C10.5329 13.8178 9.67913 13.5027 8.81052 13.5444C8.05062 13.5809 7.13846 13.9019 6 14.9408V21C6 21.5523 5.55228 22 5 22C4.44772 22 4 21.5523 4 21V14.512V14V4.971V4.97C4 4.70286 4.10689 4.44682 4.29684 4.25897C5.81853 2.75413 7.26432 2.07443 8.71451 2.00475C10.1209 1.93717 11.3671 2.45783 12.434 2.97186C12.6588 3.08016 12.8771 3.18796 13.0901 3.29318ZM6 12.433V5.39875C7.13846 4.35995 8.05061 4.03896 8.81049 4.00245C9.67907 3.96071 10.5329 4.27593 11.566 4.77365C11.7666 4.87032 11.9743 4.97502 12.189 5.08328C13.7457 5.86812 15.674 6.84035 18 6.30092V13.7628C16.2279 14.3842 14.8334 13.6956 13.0894 12.8345C12.8766 12.7294 12.6585 12.6217 12.434 12.5136C11.3671 11.9997 10.1209 11.4791 8.71448 11.5467C7.81436 11.59 6.91594 11.8683 6 12.433Z"/>
</svg>