<svg xmlns="http://www.w3.org/2000/svg" width="24" height="24" viewBox="0 0 24 24" >
  <path fill-rule="evenodd" clip-rule="evenodd" d="M19.5144 1.12584C19.9972 0.857629 20.606 1.03157 20.8742 1.51436L20 2C20.8742 1.51436 20.8744 1.51477 20.8746 1.51521L20.8752 1.51616L20.8764 1.51834L20.8794 1.52383L20.8878 1.53933C20.8944 1.55166 20.903 1.56795 20.9134 1.58813C20.9342 1.62847 20.9622 1.68437 20.9958 1.75504C21.0628 1.8963 21.1521 2.0971 21.2498 2.35118C21.4449 2.85859 21.6757 3.58318 21.8292 4.47384C22.1371 6.25921 22.135 8.71968 20.9104 11.4138C20.6818 11.9166 20.089 12.1389 19.5862 11.9104C19.0834 11.6818 18.8611 11.089 19.0897 10.5862C20.1151 8.33032 20.113 6.29079 19.8583 4.81366C19.7306 4.07307 19.5395 3.47578 19.3831 3.06913C19.305 2.86618 19.2361 2.7119 19.1888 2.61234C19.1652 2.56261 19.1471 2.52666 19.1361 2.50525L19.125 2.4842L19.1251 2.48421L19.1254 2.48488C18.8578 2.00222 19.0318 1.39391 19.5144 1.12584ZM19.125 2.4842C19.1245 2.48314 19.1241 2.48246 19.124 2.48218L19.1245 2.48314L19.125 2.4842ZM16.0528 3.10557C16.5468 2.85858 17.1475 3.05881 17.3944 3.55279L16.5 4C17.3944 3.55279 17.3946 3.55318 17.3948 3.55359L17.3953 3.55445L17.3962 3.55632L17.3984 3.56071L17.4039 3.57203L17.4193 3.60473C17.4315 3.63095 17.4473 3.66596 17.4658 3.70935C17.5029 3.79605 17.551 3.91658 17.6032 4.06742C17.7074 4.36849 17.8292 4.79415 17.9101 5.31541C18.0721 6.35939 18.0714 7.79989 17.4256 9.37863C17.2165 9.8898 16.6326 10.1347 16.1214 9.92555C15.6102 9.71643 15.3654 9.13253 15.5745 8.62137C16.0536 7.4501 16.053 6.39061 15.9337 5.62209C15.874 5.2371 15.7848 4.92839 15.7132 4.72164C15.6776 4.61857 15.6466 4.54184 15.6265 4.49475C15.6165 4.47124 15.6092 4.45523 15.6054 4.44715L15.6028 4.4415C15.3602 3.94861 15.5607 3.35161 16.0528 3.10557Z" />
  <path fill-rule="evenodd" clip-rule="evenodd" d="M10.8394 9.73358C10.4148 9.90947 9.95963 10 9.5 10C8.57174 10 7.6815 9.63125 7.02513 8.97487C6.36875 8.3185 6 7.42826 6 6.5C6 5.57174 6.36875 4.6815 7.02513 4.02513C7.6815 3.36875 8.57174 3 9.5 3C9.95963 3 10.4148 3.09053 10.8394 3.26642C11.264 3.44231 11.6499 3.70012 11.9749 4.02513C12.2999 4.35013 12.5577 4.73597 12.7336 5.16061C12.9095 5.58525 13 6.04037 13 6.5C13 6.95963 12.9095 7.41475 12.7336 7.83939C12.5577 8.26403 12.2999 8.64987 11.9749 8.97487C11.6499 9.29988 11.264 9.55769 10.8394 9.73358ZM2 21V20.4C2 18.16 2 17.04 2.436 16.184C2.81949 15.4314 3.43139 14.8195 4.184 14.436C5.04 14 6.16 14 8.4 14H10.6C12.84 14 13.96 14 14.816 14.436C15.5686 14.8195 16.1805 15.4314 16.564 16.184C17 17.04 17 18.16 17 20.4V21H2Z" />
  <path d="M12.7336 5.16061L11.8097 5.54329L11.8097 5.54329L12.7336 5.16061ZM2 21H1C1 21.5523 1.44772 22 2 22V21ZM2.436 16.184L1.545 15.73L1.54493 15.7301L2.436 16.184ZM4.184 14.436L3.73014 13.5449L3.73 13.545L4.184 14.436ZM14.816 14.436L15.27 13.545L15.2699 13.5449L14.816 14.436ZM16.564 16.184L17.4551 15.7301L17.455 15.73L16.564 16.184ZM17 21V22C17.5523 22 18 21.5523 18 21H17ZM9.5 11C10.0909 11 10.6761 10.8836 11.2221 10.6575L10.4567 8.8097C10.1534 8.93534 9.82831 9 9.5 9V11ZM6.31802 9.68198C7.16193 10.5259 8.30653 11 9.5 11V9C8.83696 9 8.20107 8.73661 7.73223 8.26777L6.31802 9.68198ZM5 6.5C5 7.69347 5.47411 8.83807 6.31802 9.68198L7.73223 8.26777C7.26339 7.79893 7 7.16304 7 6.5H5ZM6.31802 3.31802C5.47411 4.16193 5 5.30653 5 6.5H7C7 5.83696 7.26339 5.20107 7.73223 4.73223L6.31802 3.31802ZM9.5 2C8.30653 2 7.16193 2.47411 6.31802 3.31802L7.73223 4.73223C8.20107 4.26339 8.83696 4 9.5 4V2ZM11.2221 2.34254C10.6761 2.1164 10.0909 2 9.5 2V4C9.8283 4 10.1534 4.06466 10.4567 4.1903L11.2221 2.34254ZM12.682 3.31802C12.2641 2.90016 11.768 2.56869 11.2221 2.34254L10.4567 4.1903C10.76 4.31594 11.0356 4.50009 11.2678 4.73223L12.682 3.31802ZM13.6575 4.77793C13.4313 4.23196 13.0998 3.73588 12.682 3.31802L11.2678 4.73223C11.4999 4.96438 11.6841 5.23998 11.8097 5.54329L13.6575 4.77793ZM14 6.5C14 5.90905 13.8836 5.32389 13.6575 4.77793L11.8097 5.54329C11.9353 5.8466 12 6.1717 12 6.5H14ZM13.6575 8.22207C13.8836 7.67611 14 7.09095 14 6.5H12C12 6.8283 11.9353 7.15339 11.8097 7.45671L13.6575 8.22207ZM12.682 9.68198C13.0998 9.26412 13.4313 8.76804 13.6575 8.22207L11.8097 7.45671C11.6841 7.76002 11.4999 8.03562 11.2678 8.26777L12.682 9.68198ZM11.2221 10.6575C11.768 10.4313 12.2641 10.0998 12.682 9.68198L11.2678 8.26777C11.0356 8.49991 10.76 8.68406 10.4567 8.8097L11.2221 10.6575ZM1 20.4V21H3V20.4H1ZM1.54493 15.7301C1.2432 16.3225 1.11738 16.9627 1.05782 17.6916C0.999222 18.4087 1 19.2965 1 20.4H3C3 19.2635 3.00078 18.4713 3.05118 17.8544C3.10062 17.2493 3.1928 16.9015 3.32707 16.6379L1.54493 15.7301ZM3.73 13.545C2.78923 14.0244 2.02436 14.7892 1.545 15.73L3.327 16.638C3.61462 16.0735 4.07354 15.6146 4.638 15.327L3.73 13.545ZM8.4 13C7.2965 13 6.40873 12.9992 5.69156 13.0578C4.96269 13.1174 4.32252 13.2432 3.73014 13.5449L4.63786 15.3271C4.90148 15.1928 5.24931 15.1006 5.85444 15.0512C6.47127 15.0008 7.2635 15 8.4 15V13ZM10.6 13H8.4V15H10.6V13ZM15.2699 13.5449C14.6775 13.2432 14.0373 13.1174 13.3084 13.0578C12.5913 12.9992 11.7035 13 10.6 13V15C11.7365 15 12.5287 15.0008 13.1456 15.0512C13.7507 15.1006 14.0985 15.1928 14.3621 15.3271L15.2699 13.5449ZM17.455 15.73C16.9756 14.7892 16.2108 14.0244 15.27 13.545L14.362 15.327C14.9265 15.6146 15.3854 16.0735 15.673 16.638L17.455 15.73ZM18 20.4C18 19.2965 18.0008 18.4087 17.9422 17.6916C17.8826 16.9627 17.7568 16.3225 17.4551 15.7301L15.6729 16.6379C15.8072 16.9015 15.8994 17.2493 15.9488 17.8544C15.9992 18.4713 16 19.2635 16 20.4H18ZM18 21V20.4H16V21H18ZM2 22H17V20H2V22Z" />
</svg>