<svg xmlns="http://www.w3.org/2000/svg" width="24" height="24" viewBox="0 0 24 24">
  <path fill-rule="evenodd" clip-rule="evenodd" d="M17.1039 3C14.6936 3 12.7373 4.95625 12.7373 7.36663C12.7373 9.77701 14.6936 11.7333 17.1039 11.7333C19.5143 11.7333 21.4706 9.77701 21.4706 7.36663C21.4706 4.95625 19.5143 3 17.1039 3ZM18.8506 7.8033H17.5406V9.11329C17.5406 9.35345 17.3441 9.54995 17.104 9.54995C16.8638 9.54995 16.6673 9.35345 16.6673 9.11329V7.8033H15.3573C15.1172 7.8033 14.9207 7.6068 14.9207 7.36664C14.9207 7.12647 15.1172 6.92997 15.3573 6.92997H16.6673V5.61998C16.6673 5.37982 16.8638 5.18332 17.104 5.18332C17.3441 5.18332 17.5406 5.37982 17.5406 5.61998V6.92997H18.8506C19.0908 6.92997 19.2873 7.12647 19.2873 7.36664C19.2873 7.6068 19.0908 7.8033 18.8506 7.8033ZM11.9731 7.38028C11.9731 6.52216 12.1836 5.7129 12.5556 5.00133L12.4023 5.0007L12 5C8.8787 5 6.32714 5.12094 4.32046 5.30982C3.20708 5.41546 2.32434 6.35302 2.20612 7.54884L2.15964 8.06672C2.07193 9.15009 2.0162 10.5209 2.00302 12.2124L2 12.9987L2.00354 13.8557C2.01996 15.7944 2.09274 17.3086 2.20614 18.4523C2.32441 19.6473 3.20737 20.5855 4.32001 20.6911L5.04902 20.7546C6.92935 20.906 9.24359 21 12 21L13.0746 20.9951C15.7033 20.9709 17.8978 20.8584 19.6431 20.6938C20.755 20.5895 21.6403 19.6585 21.7597 18.4668C21.9088 16.9808 22 15.1558 22 13C22 11.6268 21.963 10.3876 21.8975 9.28473C21.1401 11.1826 19.2846 12.5247 17.1176 12.5247C14.2778 12.5247 11.9731 10.22 11.9731 7.38028ZM5.82979 10.7143C5.82979 9.07295 7.0679 7.74286 8.59574 7.74286C10.1236 7.74286 11.3617 9.07295 11.3617 10.7143C11.3617 11.7098 10.9062 12.5909 10.2068 13.1301C11.6377 13.7988 12.6383 15.3311 12.6383 17.1143C12.6383 17.493 12.3525 17.8 12 17.8H5.19149C4.83897 17.8 4.55319 17.493 4.55319 17.1143C4.55319 15.3311 5.55378 13.7988 6.98466 13.1301C6.28529 12.5909 5.82979 11.7098 5.82979 10.7143ZM18.5957 14.8286C18.5957 14.4499 18.31 14.1429 17.9574 14.1429H14.5532L14.4666 14.1491C14.155 14.1945 13.9149 14.4814 13.9149 14.8286C13.9149 15.2073 14.2007 15.5143 14.5532 15.5143H17.9574L18.0441 15.508C18.3556 15.4626 18.5957 15.1757 18.5957 14.8286Z"/>
</svg>