<svg xmlns="http://www.w3.org/2000/svg" width="24" height="24" viewBox="0 0 24 24" >
  <path fill="var(green, currentColor)" fill-rule="evenodd" clip-rule="evenodd" d="M6.106 3.70259L3.71444 6.09331C3.01254 6.79522 2.80332 7.85229 3.19637 8.75896C4.12169 10.8884 5.73363 13.2923 8.22031 15.779C10.7066 18.266 13.1091 19.877 15.2397 20.8028C16.1466 21.1971 17.2042 20.9878 17.906 20.2847L20.2974 17.8933C21.2342 16.9578 21.2342 15.4388 20.2977 14.5012L18.3384 12.5427C17.4017 11.606 15.8828 11.606 14.9461 12.5428L13.4491 14.0389C13.3659 14.1223 13.2333 14.1223 13.1508 14.0396L9.96021 10.8499C9.87832 10.7678 9.87832 10.6332 9.96088 10.5505L11.4573 9.05401C12.394 8.11606 12.394 6.59825 11.4573 5.66152L9.49843 3.70259C8.56166 2.7658 7.04277 2.7658 6.106 3.70259ZM8.56713 4.6339L10.526 6.59283C10.9485 7.01532 10.9485 7.69966 10.5257 8.12299L9.02898 9.61977C8.43308 10.2172 8.43308 11.1838 9.02837 11.7806L12.2189 14.9704C12.8154 15.5684 13.7838 15.5684 14.3809 14.9697L15.8772 13.4742C16.2998 13.0517 16.9848 13.0517 17.4072 13.4741L19.3662 15.4323C19.7885 15.8551 19.7885 16.5401 19.3664 16.9617L16.9743 19.3538C16.652 19.6767 16.1716 19.7718 15.7647 19.5949C13.7829 18.7337 11.5187 17.2156 9.15167 14.8477C6.78411 12.4801 5.26493 10.2147 4.40454 8.23458C4.22823 7.82789 4.32342 7.34694 4.64553 7.02483L7.03729 4.6339C7.45972 4.21147 8.1447 4.21147 8.56713 4.6339Z" />
</svg>