<svg xmlns="http://www.w3.org/2000/svg" width="24" height="24" viewBox="0 0 24 24" >
  <path fill-rule="evenodd" clip-rule="evenodd" d="M18.9697 6.96967C19.2626 6.67678 19.7374 6.67678 20.0303 6.96967L19.5 7.5C20.0303 6.96967 20.0306 6.96989 20.0308 6.97012L20.0313 6.9706L20.0323 6.97168L20.0349 6.97426L20.0416 6.98113L20.0613 7.00165C20.0771 7.01833 20.0982 7.04101 20.1237 7.06959C20.1747 7.1267 20.2439 7.20756 20.325 7.31121C20.487 7.51816 20.6983 7.8181 20.9084 8.20336C21.3286 8.97364 21.75 10.0966 21.75 11.5C21.75 12.9034 21.3286 14.0264 20.9084 14.7966C20.6983 15.1819 20.487 15.4818 20.325 15.6888C20.2439 15.7924 20.1747 15.8733 20.1237 15.9304C20.0982 15.959 20.0771 15.9817 20.0613 15.9984L20.0416 16.0189L20.0349 16.0257L20.0323 16.0283L20.0313 16.0294L20.0308 16.0299C20.0306 16.0301 20.0303 16.0303 19.5207 15.5207L20.0303 16.0303C19.7374 16.3232 19.2626 16.3232 18.9697 16.0303C18.6776 15.7383 18.6768 15.2654 18.9671 14.9723C18.9679 14.9714 18.9688 14.9705 18.9697 14.9697L19.5 15.5C18.9697 14.9697 18.9695 14.9699 18.9693 14.9701L18.9689 14.9705L18.9682 14.9711L18.9673 14.9721L18.9724 14.9667C18.9786 14.9602 18.9897 14.9482 19.0052 14.9309C19.0362 14.8962 19.0842 14.8404 19.1437 14.7643C19.263 14.6119 19.4267 14.3806 19.5916 14.0784C19.9214 13.4736 20.25 12.5966 20.25 11.5C20.25 10.4034 19.9214 9.52636 19.5916 8.92164C19.4267 8.6194 19.263 8.38809 19.1437 8.23567C19.0842 8.15963 19.0362 8.10377 19.0052 8.06908C18.9897 8.05176 18.9786 8.03978 18.9724 8.03326L18.9671 8.02774C18.6768 7.73464 18.6776 7.2617 18.9697 6.96967Z" />
  <path fill-rule="evenodd" clip-rule="evenodd" d="M12.5093 18.4623L7.64928 15.258C7.51703 15.1708 7.36215 15.1244 7.20378 15.1243H4.85478C4.42512 15.1243 4.01307 14.9536 3.70926 14.6498C3.40545 14.346 3.23478 13.934 3.23478 13.5043V10.496C3.23478 10.0663 3.40545 9.65428 3.70926 9.35047C4.01307 9.04666 4.42512 8.87598 4.85478 8.87598H7.20378C7.36215 8.87594 7.51703 8.82947 7.64928 8.74233L12.5093 5.53797C12.6314 5.45755 12.773 5.41169 12.9191 5.40524C13.0651 5.39879 13.2102 5.432 13.3389 5.50135C13.4677 5.57069 13.5752 5.67358 13.6502 5.79911C13.7252 5.92463 13.7648 6.06811 13.7648 6.21432V17.786C13.7648 17.9322 13.7252 18.0757 13.6502 18.2012C13.5752 18.3267 13.4677 18.4296 13.3389 18.499C13.2102 18.5683 13.0651 18.6015 12.9191 18.5951C12.773 18.5886 12.6314 18.5427 12.5093 18.4623ZM7.08207 7.66098L11.8405 4.52361L11.841 4.52324C12.1463 4.3222 12.5003 4.20754 12.8655 4.19142C13.2306 4.1753 13.5934 4.25833 13.9152 4.43168C14.237 4.60504 14.5059 4.86227 14.6933 5.17608C14.8807 5.4899 14.9797 5.84859 14.9798 6.21412V6.21432V17.786V17.7862C14.9797 18.1517 14.8807 18.5104 14.6933 18.8242C14.5059 19.138 14.237 19.3953 13.9152 19.5686C13.5934 19.742 13.2306 19.825 12.8655 19.8089C12.5003 19.7928 12.1463 19.6781 11.841 19.4771L11.8405 19.4767L7.08208 16.3393H4.85478C4.10289 16.3393 3.38179 16.0406 2.85013 15.509C2.31846 14.9773 2.01978 14.2562 2.01978 13.5043V10.496C2.01978 9.74409 2.31846 9.023 2.85013 8.49133C3.38179 7.95967 4.10289 7.66098 4.85478 7.66098H7.08207Z" />
</svg>