<svg xmlns="http://www.w3.org/2000/svg" width="24" height="24" viewBox="0 0 24 24" >
  <path fill-rule="evenodd" clip-rule="evenodd" d="M12 4L13.0722 4.00524C15.695 4.0312 17.8844 4.15195 19.6494 4.32916C20.7752 4.44205 21.6457 5.42398 21.7605 6.65243C21.9091 8.24179 22 10.1939 22 12.5C22 14.8067 21.9091 16.7578 21.7605 18.3475C21.6457 19.576 20.7752 20.5579 19.6499 20.6708L18.9252 20.7385C17.1795 20.8892 15.0497 20.9864 12.5429 20.9987L12 21C8.87154 21 6.30967 20.8699 4.31338 20.6673C3.18695 20.5532 2.31898 19.5646 2.20539 18.332L2.16208 17.8176C2.06629 16.566 2.00812 14.9549 2.00079 12.9383L2 12.5C2 9.98073 2.07636 8.06404 2.20538 6.66809C2.31903 5.43591 3.1872 4.44674 4.31323 4.33273L5.04133 4.26431C6.92031 4.10127 9.2396 4 12 4ZM10.5573 10.4905L10.6493 10.5838L13.7165 13.9584C13.7696 14.0171 13.836 14.0349 13.8975 14.0126L13.9424 13.9884L15.288 13.0012C15.8761 12.5684 16.6601 12.6491 17.1612 13.1681L17.2518 13.2705L19.0861 15.5411C19.8648 16.5065 19.3132 18.0314 18.0971 18.1523C16.872 18.2734 15.2857 18.3539 13.2906 18.3775L12.4104 18.384L12.0485 18.3846C9.38717 18.3846 7.35985 18.2931 5.88925 18.1408C4.75252 18.0251 4.19898 16.6652 4.79816 15.6963L4.8668 15.5941L8.41314 10.7156C8.91129 10.0301 9.81984 9.91065 10.4542 10.4028L10.5573 10.4905ZM14.1277 9.01281C14.1277 7.56875 15.2712 6.39743 16.6809 6.39743C18.0911 6.39743 19.2341 7.56863 19.2341 9.01281C19.2341 10.4575 18.0912 11.6282 16.6809 11.6282C15.271 11.6282 14.1277 10.4574 14.1277 9.01281Z" />
</svg>