<svg xmlns="http://www.w3.org/2000/svg" width="24" height="24" viewBox="0 0 24 24" >
  <path fill="var(green, currentColor)" fill-rule="evenodd" clip-rule="evenodd" d="M12 4L12.7101 4.00359C13.8499 4.01547 14.7726 4.05645 15.5001 4.12066C16.6394 4.2201 17.533 5.10353 17.6105 6.20468L17.6323 6.54933L18.3516 6.58092C18.5678 6.59121 18.7724 6.60201 18.965 6.61327L19.4642 6.64532C20.647 6.72833 21.6106 7.54377 21.75 8.62127C21.9061 9.83137 22 11.3607 22 13.2308C22 15.101 21.906 16.6307 21.75 17.8394C21.6106 18.9176 20.6472 19.7332 19.4648 19.8162L18.8207 19.857C17.2266 19.947 14.9894 20 12 20L10.3729 19.9943C7.79496 19.9757 5.88058 19.9117 4.53578 19.8162C3.35282 19.7332 2.38935 18.9176 2.24999 17.8393C2.09398 16.6307 2 15.101 2 13.2308C2 11.3607 2.09394 9.83137 2.25001 8.62127C2.38942 7.54377 3.35304 6.72833 4.5355 6.64534C4.93502 6.61712 5.40184 6.59108 5.93171 6.56803L6.36672 6.55015L6.38955 6.2041C6.46698 5.10353 7.36062 4.2201 8.49933 4.12071C9.3743 4.04358 10.5273 4 12 4ZM20.4658 8.68008C20.3606 8.24984 19.9272 7.91184 19.3712 7.87282L18.693 7.83079C18.4481 7.81743 18.1846 7.80477 17.9031 7.79294L17.0054 7.76008L16.4172 7.74144L16.3634 6.70555C16.3547 6.5573 16.3458 6.41755 16.3368 6.28739C16.3018 5.78976 15.8987 5.39125 15.3844 5.34636L14.9446 5.31231C14.1716 5.26006 13.1971 5.23077 12 5.23077L11.3085 5.23423C10.1999 5.24569 9.30987 5.28516 8.615 5.34642C8.10134 5.39125 7.69823 5.78976 7.66326 6.28681L7.62369 6.93413L7.58284 7.74144L6.38438 7.7814C5.6998 7.80767 5.1117 7.83871 4.62847 7.87284C4.0331 7.91462 3.57811 8.29965 3.51682 8.77337C3.37892 9.84261 3.29092 11.1848 3.27819 12.8167L3.2766 13.2308C3.2766 15.0513 3.36746 16.5303 3.5168 17.6872C3.57815 18.1618 4.03301 18.5469 4.62901 18.5887L5.04115 18.6159C6.47282 18.7031 8.48624 18.7585 11.1735 18.7678H12.8265C15.7825 18.7575 17.9232 18.6915 19.3715 18.5887C19.967 18.5469 20.4219 18.1618 20.4832 17.6873C20.6325 16.5303 20.7234 15.0513 20.7234 13.2308C20.7234 11.5504 20.646 10.1612 20.5166 9.04637L20.4832 8.77337L20.4658 8.68008ZM11.8123 17.5351C9.19675 17.4399 7.10638 15.3654 7.10638 12.8205C7.10638 10.215 9.29748 8.10256 12 8.10256C14.7025 8.10256 16.8936 10.215 16.8936 12.8205C16.8936 15.3654 14.8032 17.4399 12.1877 17.5351L12 17.5385L11.8123 17.5351ZM12 9.33333C10.0025 9.33333 8.38298 10.8947 8.38298 12.8205C8.38298 14.6896 9.90866 16.2155 11.8248 16.3037L11.9999 16.3077L12.1752 16.3037C14.0333 16.2182 15.5242 14.7808 15.6129 12.9895L15.617 12.8205C15.617 10.8947 13.9975 9.33333 12 9.33333Z"/>
</svg>