<svg xmlns="http://www.w3.org/2000/svg" width="24" height="24" viewBox="0 0 24 24" >
  <path fill="var(green, currentColor)" fill-rule="evenodd" clip-rule="evenodd" d="M12 16.4444C9.99182 16.4444 8.36364 14.8524 8.36364 12.8889C8.36364 10.9253 9.99182 9.33333 12 9.33333C14.0082 9.33333 15.6364 10.9253 15.6364 12.8889C15.6364 14.8524 14.0082 16.4444 12 16.4444ZM21.7382 8.42222C21.6309 7.58133 20.8727 6.93156 19.9236 6.864C19.3155 6.82044 18.4755 6.776 17.3691 6.74044C17.3509 6.37156 17.3318 6.04533 17.3127 5.76622C17.2527 4.90133 16.5609 4.20622 15.6773 4.128C14.8927 4.05778 13.7227 4 12 4C10.2773 4 9.10818 4.05778 8.32273 4.128C7.43909 4.20622 6.74727 4.90133 6.68727 5.76622C6.66818 6.04533 6.64909 6.37156 6.63091 6.74044C5.52455 6.776 4.68455 6.82044 4.07636 6.864C3.12727 6.93156 2.36909 7.58133 2.26182 8.42222C2.13273 9.43733 2 11.04 2 13.3333C2 15.6267 2.13273 17.2293 2.26182 18.2436C2.36909 19.0853 3.12727 19.7351 4.07636 19.8027C5.42182 19.8996 7.82636 20 12 20C16.1736 20 18.5782 19.8996 19.9236 19.8027C20.8727 19.7351 21.6309 19.0853 21.7382 18.2436C21.8673 17.2293 22 15.6267 22 13.3333C22 11.04 21.8673 9.43733 21.7382 8.42222Z"/>
</svg>