<svg xmlns="http://www.w3.org/2000/svg" viewBox="0 0 24 24">
  <path  d="M20.6155 17.7048C19.7255 18.6385 18.8055 19.5443 17.8828 20.4461C17.372 20.9455 16.9025 20.9947 16.1958 20.672C13.5419 19.4609 11.2577 17.7229 9.17235 15.7153C6.76575 13.3985 4.66353 10.8476 3.24458 7.79195C2.84581 6.93324 2.91561 6.53238 3.59227 5.85504C4.40418 5.04238 5.21628 4.22973 6.03291 3.42198C6.76291 2.7001 7.45016 2.69387 8.1724 3.40442C8.84527 4.06667 9.51398 4.73344 10.1778 5.40474C10.8881 6.12322 10.8817 6.80774 10.1625 7.53679C9.6761 8.02955 9.1784 8.51137 8.69394 9.00584C7.84249 9.87474 7.8319 10.8457 8.68145 11.7048C9.84314 12.88 11.0131 14.0467 12.1911 15.2055C13.0537 16.054 14.0228 16.0433 14.8958 15.1923C15.4026 14.698 15.8954 14.189 16.4025 13.6948C17.0924 13.0219 17.7901 13.0148 18.4715 13.681C19.1691 14.3628 19.8732 15.0402 20.5362 15.7547C20.7874 16.0257 21.3958 16.8291 20.6155 17.7048Z"/>
</svg>